<svg xmlns="http://www.w3.org/2000/svg" xmlns:xlink="http://www.w3.org/1999/xlink" width="330" zoomAndPan="magnify" viewBox="0 0 247.5 326.250004" height="435" preserveAspectRatio="xMidYMid meet" version="1.0"><defs><clipPath id="5eff0f2368"><path d="M 0.0351562 0 L 246.964844 0 L 246.964844 325.5 L 0.0351562 325.5 Z M 0.0351562 0 " clip-rule="nonzero"/></clipPath></defs><g clip-path="url(#5eff0f2368)"><path fill="#000000" d="M -48.117188 -2.46875 L -45.242188 -2.46875 L -45.097656 8.125 C -45.097656 8.257812 -45.03125 8.320312 -44.898438 8.320312 L -17.246094 8.113281 C -17.160156 8.113281 -17.089844 8.082031 -17.03125 8.023438 C -16.972656 7.964844 -16.945312 7.894531 -16.945312 7.8125 L -17.007812 -2.46875 L -14.152344 -2.46875 L -13.988281 7.914062 C -13.988281 8.0625 -13.910156 8.136719 -13.761719 8.136719 L 11.871094 8.074219 C 12.019531 8.070312 12.09375 7.996094 12.09375 7.851562 L 12.09375 -2.46875 L 14.953125 -2.46875 L 15.09375 7.859375 C 15.097656 7.992188 15.164062 8.058594 15.296875 8.058594 L 44.628906 8.027344 C 44.765625 8.027344 44.835938 7.957031 44.835938 7.820312 L 44.746094 -2.117188 C 44.746094 -2.144531 44.785156 -2.226562 44.863281 -2.367188 C 44.886719 -2.414062 44.921875 -2.445312 44.96875 -2.46875 L 47.695312 -2.46875 L 47.839844 7.847656 C 47.839844 7.9375 47.882812 7.980469 47.972656 7.980469 L 75.769531 7.871094 C 76.140625 7.871094 76.324219 7.6875 76.320312 7.316406 L 76.265625 -2.46875 L 79.117188 -2.46875 L 79.273438 7.65625 C 79.273438 7.761719 79.328125 7.8125 79.433594 7.8125 L 105.8125 7.714844 C 105.949219 7.714844 106.019531 7.644531 106.019531 7.511719 L 106.035156 -2.46875 L 108.882812 -2.46875 L 109.03125 7.558594 C 109.03125 7.65625 109.082031 7.707031 109.179688 7.707031 L 136.964844 7.703125 C 137.109375 7.703125 137.179688 7.628906 137.179688 7.484375 L 137.121094 -2.46875 L 139.972656 -2.46875 L 140.113281 7.605469 C 140.113281 7.65625 140.140625 7.679688 140.1875 7.679688 L 165.769531 7.59375 C 166.066406 7.589844 166.21875 7.441406 166.21875 7.148438 L 166.230469 -2.46875 L 169.078125 -2.46875 L 169.214844 7.367188 C 169.214844 7.457031 169.261719 7.5 169.355469 7.5 L 198.660156 7.433594 C 198.742188 7.433594 198.816406 7.40625 198.875 7.34375 C 198.933594 7.28125 198.964844 7.210938 198.964844 7.125 L 198.871094 -1.914062 C 198.871094 -1.953125 198.859375 -1.988281 198.839844 -2.019531 C 198.820312 -2.050781 198.804688 -2.085938 198.789062 -2.121094 C 198.746094 -2.222656 198.773438 -2.300781 198.875 -2.351562 L 199.09375 -2.46875 L 201.820312 -2.46875 L 201.964844 7.230469 C 201.964844 7.328125 202.011719 7.375 202.109375 7.375 L 230.167969 7.371094 C 230.308594 7.371094 230.378906 7.300781 230.378906 7.15625 L 230.390625 -2.46875 L 233.242188 -2.46875 L 233.386719 7.070312 C 233.386719 7.160156 233.421875 7.238281 233.484375 7.300781 C 233.546875 7.363281 233.625 7.394531 233.714844 7.394531 L 259.179688 7.269531 C 259.253906 7.269531 259.320312 7.242188 259.371094 7.1875 C 259.425781 7.136719 259.453125 7.070312 259.453125 6.996094 L 259.496094 -2.46875 L 262.347656 -2.46875 L 262.5 7.042969 C 262.503906 7.128906 262.535156 7.199219 262.59375 7.257812 C 262.65625 7.316406 262.730469 7.34375 262.8125 7.339844 C 266.273438 7.203125 269.644531 7.203125 272.921875 7.34375 L 272.910156 10.121094 L 262.726562 10.261719 C 262.652344 10.265625 262.585938 10.289062 262.535156 10.34375 C 262.480469 10.398438 262.457031 10.460938 262.457031 10.539062 L 262.640625 38.105469 C 262.644531 38.261719 262.722656 38.339844 262.878906 38.339844 L 272.621094 38.269531 C 272.703125 38.269531 272.761719 38.304688 272.800781 38.371094 L 272.910156 38.5625 L 272.910156 41.210938 L 263.109375 41.28125 C 262.976562 41.285156 262.863281 41.332031 262.773438 41.425781 C 262.679688 41.519531 262.632812 41.632812 262.632812 41.765625 L 262.746094 67.328125 C 262.746094 67.398438 262.78125 67.433594 262.851562 67.433594 L 272.625 67.378906 C 272.707031 67.378906 272.761719 67.414062 272.800781 67.480469 L 272.910156 67.667969 L 272.910156 70.316406 L 262.984375 70.453125 C 262.820312 70.457031 262.738281 70.539062 262.738281 70.703125 L 262.738281 100.070312 C 262.738281 100.210938 262.808594 100.273438 262.941406 100.265625 C 266.273438 100.089844 269.597656 100.09375 272.914062 100.28125 L 272.910156 103.058594 L 262.972656 103.207031 C 262.851562 103.210938 262.792969 103.269531 262.796875 103.386719 L 262.90625 131.523438 C 262.90625 131.617188 262.953125 131.664062 263.046875 131.660156 L 272.660156 131.527344 C 272.742188 131.527344 272.796875 131.566406 272.816406 131.648438 C 272.835938 131.722656 272.867188 131.785156 272.910156 131.832031 L 272.910156 134.480469 L 263.226562 134.613281 C 263.152344 134.617188 263.089844 134.640625 263.039062 134.695312 C 262.988281 134.746094 262.960938 134.808594 262.960938 134.882812 L 263.070312 161.195312 C 263.070312 161.324219 263.136719 161.390625 263.265625 161.390625 L 272.617188 161.296875 C 272.699219 161.296875 272.757812 161.332031 272.796875 161.40625 L 272.910156 161.597656 L 272.910156 164.246094 L 263.253906 164.375 C 263.132812 164.375 263.070312 164.4375 263.070312 164.558594 L 263.070312 192.40625 C 263.070312 192.476562 263.105469 192.511719 263.179688 192.511719 L 272.65625 192.382812 C 272.742188 192.382812 272.796875 192.421875 272.816406 192.503906 C 272.835938 192.578125 272.867188 192.636719 272.910156 192.6875 L 272.910156 195.335938 L 263.457031 195.476562 C 263.203125 195.480469 263.074219 195.613281 263.078125 195.867188 L 263.179688 221.445312 C 263.183594 221.5625 263.242188 221.621094 263.363281 221.617188 L 272.660156 221.488281 C 272.742188 221.488281 272.796875 221.53125 272.816406 221.609375 C 272.835938 221.683594 272.867188 221.742188 272.910156 221.792969 L 272.910156 224.441406 L 263.359375 224.5625 C 263.28125 224.5625 263.242188 224.601562 263.242188 224.679688 L 263.359375 254.183594 C 263.359375 254.246094 263.382812 254.300781 263.425781 254.34375 C 263.472656 254.386719 263.527344 254.40625 263.589844 254.402344 C 266.707031 254.238281 269.816406 254.238281 272.914062 254.40625 L 272.910156 257.183594 L 263.574219 257.335938 C 263.449219 257.335938 263.386719 257.402344 263.386719 257.523438 L 263.40625 285.648438 C 263.40625 285.703125 263.433594 285.730469 263.488281 285.730469 L 272.621094 285.664062 C 272.703125 285.664062 272.761719 285.699219 272.800781 285.765625 L 272.910156 285.957031 L 272.910156 288.601562 L 263.699219 288.679688 C 263.484375 288.683594 263.378906 288.789062 263.378906 289.003906 L 263.5 314.765625 C 263.5 314.8125 263.527344 314.835938 263.578125 314.835938 L 272.621094 314.769531 C 272.703125 314.765625 272.761719 314.800781 272.800781 314.871094 L 272.910156 315.0625 L 272.910156 317.707031 L 263.671875 317.835938 C 263.519531 317.835938 263.441406 317.914062 263.445312 318.070312 L 263.507812 328.273438 L 260.652344 328.273438 L 260.503906 318 C 260.5 317.878906 260.441406 317.816406 260.320312 317.816406 L 234.566406 317.984375 C 234.414062 317.984375 234.335938 318.058594 234.335938 318.214844 L 234.386719 328.273438 L 231.546875 328.273438 L 231.390625 318.160156 C 231.390625 318.050781 231.332031 317.992188 231.21875 317.992188 L 203.390625 318.101562 C 203.046875 318.101562 202.882812 318.273438 202.902344 318.621094 C 203.085938 321.90625 203.101562 325.121094 202.9375 328.273438 L 200.128906 328.273438 L 199.972656 318.464844 C 199.96875 318.363281 199.933594 318.277344 199.859375 318.203125 C 199.789062 318.132812 199.699219 318.09375 199.597656 318.09375 L 170.707031 318.105469 C 170.550781 318.105469 170.417969 318.164062 170.3125 318.277344 C 170.203125 318.390625 170.152344 318.527344 170.164062 318.683594 C 170.34375 321.9375 170.355469 325.132812 170.195312 328.273438 L 167.382812 328.273438 L 167.230469 318.484375 C 167.226562 318.390625 167.195312 318.3125 167.128906 318.246094 C 167.066406 318.183594 166.984375 318.152344 166.894531 318.152344 L 141.617188 318.253906 C 141.222656 318.257812 141.035156 318.453125 141.058594 318.847656 C 141.242188 322.070312 141.25 325.214844 141.089844 328.273438 L 138.277344 328.273438 L 138.125 318.589844 C 138.121094 318.417969 138.03125 318.332031 137.863281 318.332031 L 110.582031 318.386719 C 110.410156 318.386719 110.265625 318.449219 110.144531 318.574219 C 110.027344 318.699219 109.972656 318.851562 109.980469 319.023438 C 110.125 321.996094 110.136719 325.078125 110.019531 328.273438 L 107.191406 328.273438 L 107.035156 318.703125 C 107.035156 318.578125 106.976562 318.492188 106.859375 318.441406 C 106.453125 318.261719 105.761719 318.4375 105.445312 318.4375 C 97.109375 318.429688 88.765625 318.429688 80.417969 318.4375 C 80.296875 318.4375 80.234375 318.496094 80.238281 318.617188 L 80.359375 328.019531 C 80.359375 328.078125 80.34375 328.128906 80.308594 328.175781 L 80.234375 328.273438 L 77.421875 328.273438 L 77.269531 318.652344 C 77.265625 318.496094 77.1875 318.417969 77.03125 318.417969 L 49.234375 318.542969 C 48.917969 318.542969 48.765625 318.703125 48.785156 319.023438 C 48.964844 322.136719 48.976562 325.222656 48.8125 328.273438 L 46.003906 328.273438 L 45.835938 318.800781 C 45.835938 318.675781 45.769531 318.613281 45.644531 318.613281 L 16.550781 318.707031 C 16.40625 318.707031 16.285156 318.761719 16.1875 318.863281 C 16.085938 318.96875 16.042969 319.09375 16.046875 319.238281 C 16.183594 322.195312 16.199219 325.207031 16.09375 328.273438 L 13.257812 328.273438 L 13.105469 318.925781 C 13.101562 318.808594 13.042969 318.75 12.925781 318.75 L -12.703125 318.769531 C -12.804688 318.769531 -12.890625 318.808594 -12.960938 318.878906 C -13.03125 318.953125 -13.0625 319.039062 -13.058594 319.140625 C -12.925781 322.15625 -12.910156 325.199219 -13.011719 328.273438 L -15.84375 328.273438 L -16 319.066406 C -16 318.976562 -16.035156 318.898438 -16.101562 318.832031 C -16.164062 318.769531 -16.242188 318.738281 -16.335938 318.738281 L -43.9375 318.859375 C -44.070312 318.859375 -44.128906 318.925781 -44.125 319.054688 C -44.007812 322.128906 -44 325.199219 -44.101562 328.273438 L -46.933594 328.273438 L -47.09375 319.019531 C -47.097656 318.886719 -47.164062 318.820312 -47.296875 318.820312 L -57.832031 318.835938 L -57.828125 316.097656 L -57.703125 316.015625 C -57.652344 315.984375 -57.597656 315.96875 -57.535156 315.964844 L -47.292969 315.847656 C -47.121094 315.84375 -47.035156 315.757812 -47.039062 315.585938 L -47.25 290.003906 C -47.25 289.917969 -47.28125 289.839844 -47.347656 289.777344 C -47.414062 289.71875 -47.492188 289.6875 -47.582031 289.691406 C -50.945312 289.832031 -54.363281 289.828125 -57.832031 289.6875 L -57.828125 286.992188 L -57.664062 286.902344 C -57.617188 286.878906 -57.566406 286.867188 -57.511719 286.867188 L -47.472656 286.742188 C -47.3125 286.738281 -47.230469 286.65625 -47.230469 286.496094 L -47.285156 258.664062 C -47.285156 258.558594 -47.324219 258.46875 -47.398438 258.394531 C -47.472656 258.320312 -47.566406 258.28125 -47.671875 258.28125 L -57.828125 258.328125 L -57.828125 255.488281 L -47.429688 255.359375 C -47.363281 255.359375 -47.328125 255.324219 -47.328125 255.253906 L -47.328125 225.753906 C -47.328125 225.609375 -47.398438 225.539062 -47.542969 225.539062 L -57.828125 225.585938 L -57.828125 222.800781 L -47.570312 222.597656 C -47.449219 222.59375 -47.390625 222.535156 -47.390625 222.414062 L -47.460938 196.816406 C -47.460938 196.710938 -47.5 196.621094 -47.574219 196.546875 C -47.648438 196.472656 -47.738281 196.4375 -47.84375 196.4375 L -57.828125 196.484375 L -57.828125 193.691406 L -47.816406 193.488281 C -47.65625 193.488281 -47.574219 193.40625 -47.574219 193.242188 L -47.578125 165.878906 C -47.578125 165.496094 -47.773438 165.3125 -48.15625 165.332031 C -51.269531 165.496094 -54.496094 165.492188 -57.832031 165.328125 L -57.828125 162.632812 L -57.699219 162.550781 C -57.648438 162.519531 -57.59375 162.503906 -57.53125 162.503906 L -47.976562 162.398438 C -47.886719 162.394531 -47.808594 162.363281 -47.746094 162.296875 C -47.679688 162.234375 -47.648438 162.152344 -47.648438 162.0625 L -47.664062 135.847656 C -47.664062 135.773438 -47.691406 135.710938 -47.746094 135.65625 C -47.796875 135.605469 -47.859375 135.578125 -47.933594 135.582031 L -57.828125 135.625 L -57.828125 132.867188 L -57.714844 132.792969 C -57.664062 132.761719 -57.609375 132.746094 -57.546875 132.742188 L -48.0625 132.621094 C -47.796875 132.617188 -47.664062 132.484375 -47.664062 132.214844 L -47.773438 104.359375 C -47.773438 104.222656 -47.84375 104.15625 -47.980469 104.15625 L -57.828125 104.203125 L -57.828125 101.363281 L -48.003906 101.210938 C -47.898438 101.207031 -47.84375 101.15625 -47.847656 101.050781 L -47.980469 71.621094 C -47.980469 71.480469 -48.050781 71.410156 -48.191406 71.410156 L -57.828125 71.457031 L -57.828125 68.703125 L -57.707031 68.625 C -57.65625 68.59375 -57.601562 68.574219 -57.539062 68.574219 L -48.054688 68.464844 C -48.011719 68.464844 -47.988281 68.441406 -47.988281 68.398438 L -47.992188 42.585938 C -47.992188 42.507812 -48.019531 42.441406 -48.074219 42.386719 C -48.132812 42.335938 -48.195312 42.308594 -48.273438 42.308594 L -57.828125 42.355469 L -57.828125 39.597656 L -57.707031 39.519531 C -57.65625 39.488281 -57.601562 39.46875 -57.539062 39.46875 L -48.128906 39.363281 C -48.019531 39.359375 -47.96875 39.304688 -47.96875 39.199219 L -48.089844 11.503906 C -48.089844 11.421875 -48.117188 11.355469 -48.175781 11.300781 C -48.234375 11.246094 -48.300781 11.21875 -48.378906 11.21875 L -57.828125 11.261719 L -57.828125 8.511719 C -57.777344 8.46875 -57.71875 8.4375 -57.660156 8.417969 C -57.601562 8.398438 -57.542969 8.386719 -57.480469 8.386719 L -48.234375 8.261719 C -48.109375 8.261719 -48.046875 8.195312 -48.046875 8.070312 Z M 259.484375 10.535156 C 259.484375 10.457031 259.457031 10.386719 259.402344 10.332031 C 259.34375 10.277344 259.277344 10.25 259.195312 10.25 L 233.65625 10.382812 C 233.578125 10.382812 233.511719 10.410156 233.453125 10.46875 C 233.398438 10.523438 233.371094 10.59375 233.371094 10.671875 L 233.515625 38.195312 C 233.515625 38.273438 233.542969 38.34375 233.601562 38.398438 C 233.65625 38.453125 233.726562 38.484375 233.804688 38.480469 L 259.34375 38.347656 C 259.421875 38.347656 259.492188 38.320312 259.546875 38.261719 C 259.601562 38.207031 259.628906 38.136719 259.628906 38.058594 Z M 198.980469 10.71875 C 198.980469 10.648438 198.957031 10.585938 198.902344 10.535156 C 198.851562 10.484375 198.792969 10.460938 198.71875 10.460938 L 169.496094 10.5625 C 169.421875 10.5625 169.363281 10.589844 169.3125 10.640625 C 169.261719 10.691406 169.234375 10.753906 169.234375 10.824219 L 169.332031 38.347656 C 169.332031 38.421875 169.355469 38.480469 169.40625 38.53125 C 169.460938 38.582031 169.519531 38.609375 169.59375 38.609375 L 198.816406 38.507812 C 198.890625 38.507812 198.949219 38.480469 199 38.429688 C 199.050781 38.378906 199.078125 38.316406 199.078125 38.246094 Z M 230.40625 10.671875 C 230.40625 10.511719 230.324219 10.429688 230.160156 10.429688 L 202.21875 10.527344 C 202.054688 10.527344 201.972656 10.609375 201.976562 10.773438 L 202.070312 38.269531 C 202.070312 38.433594 202.152344 38.515625 202.316406 38.515625 L 230.257812 38.417969 C 230.421875 38.414062 230.5 38.332031 230.5 38.171875 Z M 166.21875 10.761719 C 166.214844 10.621094 166.144531 10.550781 166.003906 10.550781 L 140.320312 10.683594 C 140.179688 10.683594 140.109375 10.757812 140.109375 10.898438 L 140.253906 38.585938 C 140.253906 38.726562 140.324219 38.796875 140.464844 38.796875 L 166.152344 38.664062 C 166.292969 38.660156 166.363281 38.589844 166.363281 38.449219 Z M 137.136719 11.027344 C 137.136719 10.945312 137.105469 10.875 137.046875 10.816406 C 136.992188 10.757812 136.921875 10.730469 136.839844 10.730469 L 109.332031 10.828125 C 109.25 10.828125 109.179688 10.855469 109.125 10.914062 C 109.066406 10.972656 109.035156 11.042969 109.039062 11.125 L 109.132812 38.542969 C 109.132812 38.625 109.164062 38.695312 109.222656 38.753906 C 109.277344 38.8125 109.347656 38.839844 109.429688 38.839844 L 136.9375 38.746094 C 137.019531 38.746094 137.089844 38.714844 137.144531 38.65625 C 137.203125 38.597656 137.234375 38.527344 137.230469 38.445312 Z M 76.253906 11.027344 C 76.25 10.894531 76.183594 10.828125 76.054688 10.828125 L 48.027344 10.976562 C 47.894531 10.976562 47.828125 11.042969 47.828125 11.175781 L 47.972656 38.898438 C 47.976562 39.027344 48.042969 39.09375 48.171875 39.09375 L 76.199219 38.945312 C 76.332031 38.945312 76.398438 38.878906 76.398438 38.746094 Z M 106.046875 11.121094 C 106.046875 11.03125 106.015625 10.957031 105.953125 10.894531 C 105.886719 10.832031 105.8125 10.800781 105.722656 10.800781 L 79.601562 10.890625 C 79.511719 10.890625 79.433594 10.921875 79.371094 10.988281 C 79.308594 11.050781 79.277344 11.125 79.277344 11.214844 L 79.371094 38.59375 C 79.375 38.683594 79.40625 38.761719 79.46875 38.824219 C 79.53125 38.886719 79.609375 38.917969 79.699219 38.917969 L 105.820312 38.828125 C 105.910156 38.824219 105.984375 38.792969 106.046875 38.730469 C 106.113281 38.667969 106.144531 38.589844 106.144531 38.5 Z M 44.855469 11.214844 C 44.855469 11.089844 44.792969 11.027344 44.671875 11.027344 L 15.300781 11.132812 C 15.175781 11.132812 15.117188 11.195312 15.117188 11.316406 L 15.214844 38.992188 C 15.214844 39.117188 15.277344 39.179688 15.398438 39.179688 L 44.769531 39.074219 C 44.890625 39.074219 44.953125 39.011719 44.953125 38.890625 Z M 12.113281 11.339844 C 12.113281 11.199219 12.042969 11.128906 11.902344 11.128906 L -13.777344 11.21875 C -13.917969 11.21875 -13.988281 11.289062 -13.988281 11.429688 L -13.890625 39.007812 C -13.890625 39.148438 -13.820312 39.21875 -13.679688 39.21875 L 12 39.128906 C 12.140625 39.128906 12.210938 39.058594 12.210938 38.914062 Z M -17.007812 11.402344 C -17.007812 11.332031 -17.03125 11.273438 -17.078125 11.226562 C -17.128906 11.175781 -17.1875 11.152344 -17.253906 11.152344 L -44.882812 11.277344 C -45.042969 11.28125 -45.125 11.363281 -45.125 11.527344 L -44.9375 39.167969 C -44.9375 39.234375 -44.910156 39.292969 -44.863281 39.339844 C -44.8125 39.386719 -44.753906 39.410156 -44.6875 39.410156 L -17.128906 39.203125 C -17.058594 39.203125 -17 39.179688 -16.953125 39.128906 C -16.902344 39.078125 -16.878906 39.019531 -16.878906 38.953125 Z M 259.554688 41.605469 C 259.554688 41.445312 259.476562 41.367188 259.316406 41.367188 L 233.777344 41.457031 C 233.617188 41.457031 233.539062 41.535156 233.539062 41.695312 L 233.628906 67.328125 C 233.628906 67.488281 233.710938 67.566406 233.867188 67.566406 L 259.410156 67.476562 C 259.566406 67.476562 259.644531 67.394531 259.644531 67.238281 Z M 199.050781 41.742188 C 199.050781 41.632812 198.996094 41.578125 198.882812 41.578125 L 169.566406 41.628906 C 169.457031 41.628906 169.402344 41.683594 169.402344 41.796875 L 169.449219 67.527344 C 169.449219 67.636719 169.503906 67.691406 169.613281 67.691406 L 198.929688 67.640625 C 199.039062 67.640625 199.09375 67.585938 199.09375 67.476562 Z M 230.460938 41.699219 C 230.460938 41.578125 230.398438 41.515625 230.273438 41.515625 L 202.316406 41.613281 C 202.191406 41.613281 202.128906 41.675781 202.128906 41.800781 L 202.21875 67.429688 C 202.21875 67.554688 202.28125 67.617188 202.40625 67.617188 L 230.367188 67.519531 C 230.488281 67.515625 230.550781 67.457031 230.550781 67.332031 Z M 166.285156 41.835938 C 166.285156 41.71875 166.226562 41.660156 166.109375 41.660156 L 140.449219 41.75 C 140.332031 41.75 140.273438 41.808594 140.273438 41.925781 L 140.363281 67.699219 C 140.367188 67.816406 140.425781 67.875 140.539062 67.871094 L 166.199219 67.785156 C 166.316406 67.78125 166.375 67.722656 166.375 67.605469 Z M 137.210938 42.042969 C 137.210938 41.910156 137.144531 41.84375 137.011719 41.84375 L 109.402344 41.890625 C 109.269531 41.894531 109.203125 41.960938 109.203125 42.089844 L 109.25 67.722656 C 109.25 67.855469 109.316406 67.921875 109.449219 67.921875 L 137.058594 67.875 C 137.191406 67.875 137.257812 67.808594 137.257812 67.675781 Z M 76.328125 42.21875 C 76.328125 42.140625 76.300781 42.078125 76.246094 42.023438 C 76.195312 41.96875 76.128906 41.941406 76.050781 41.941406 L 48.296875 42.039062 C 48.21875 42.039062 48.152344 42.066406 48.097656 42.121094 C 48.046875 42.175781 48.019531 42.242188 48.019531 42.316406 L 48.109375 67.902344 C 48.109375 67.980469 48.136719 68.046875 48.191406 68.101562 C 48.246094 68.152344 48.308594 68.179688 48.386719 68.179688 L 76.140625 68.082031 C 76.21875 68.082031 76.285156 68.054688 76.339844 68 C 76.394531 67.949219 76.417969 67.882812 76.417969 67.804688 Z M 106.117188 42.164062 C 106.117188 42.09375 106.09375 42.035156 106.042969 41.984375 C 105.996094 41.9375 105.933594 41.910156 105.863281 41.910156 L 79.695312 41.957031 C 79.625 41.957031 79.566406 41.984375 79.515625 42.03125 C 79.464844 42.082031 79.441406 42.140625 79.441406 42.210938 L 79.484375 67.753906 C 79.484375 67.824219 79.511719 67.882812 79.5625 67.933594 C 79.609375 67.980469 79.671875 68.007812 79.742188 68.007812 L 105.910156 67.960938 C 105.980469 67.960938 106.039062 67.9375 106.089844 67.886719 C 106.140625 67.835938 106.164062 67.777344 106.164062 67.707031 Z M 44.9375 42.351562 C 44.9375 42.207031 44.867188 42.136719 44.722656 42.136719 L 15.484375 42.1875 C 15.34375 42.1875 15.269531 42.261719 15.269531 42.402344 L 15.316406 68.042969 C 15.316406 68.1875 15.386719 68.257812 15.53125 68.257812 L 44.769531 68.207031 C 44.914062 68.207031 44.984375 68.132812 44.984375 67.992188 Z M 12.171875 42.492188 C 12.171875 42.414062 12.144531 42.351562 12.09375 42.296875 C 12.039062 42.242188 11.972656 42.21875 11.898438 42.21875 L -13.582031 42.304688 C -13.65625 42.308594 -13.722656 42.332031 -13.777344 42.386719 C -13.828125 42.441406 -13.855469 42.507812 -13.855469 42.582031 L -13.765625 68.046875 C -13.765625 68.125 -13.738281 68.1875 -13.6875 68.242188 C -13.632812 68.296875 -13.566406 68.324219 -13.492188 68.324219 L 11.988281 68.234375 C 12.066406 68.234375 12.128906 68.207031 12.183594 68.152344 C 12.234375 68.097656 12.261719 68.035156 12.261719 67.957031 Z M -16.953125 42.550781 C -16.953125 42.464844 -16.984375 42.386719 -17.050781 42.328125 C -17.113281 42.265625 -17.1875 42.234375 -17.277344 42.234375 L -44.648438 42.375 C -44.738281 42.378906 -44.8125 42.410156 -44.875 42.472656 C -44.9375 42.535156 -44.96875 42.609375 -44.96875 42.699219 L -44.835938 68.160156 C -44.832031 68.246094 -44.800781 68.324219 -44.738281 68.386719 C -44.675781 68.449219 -44.601562 68.480469 -44.511719 68.476562 L -17.140625 68.335938 C -17.050781 68.335938 -16.976562 68.304688 -16.914062 68.238281 C -16.851562 68.175781 -16.820312 68.101562 -16.820312 68.011719 Z M 233.636719 100.042969 C 233.636719 100.121094 233.664062 100.1875 233.71875 100.242188 C 233.773438 100.296875 233.839844 100.324219 233.914062 100.324219 L 259.421875 100.199219 C 259.5 100.199219 259.566406 100.171875 259.621094 100.117188 C 259.675781 100.0625 259.703125 99.996094 259.703125 99.917969 L 259.671875 70.707031 C 259.671875 70.628906 259.644531 70.5625 259.585938 70.507812 C 259.53125 70.453125 259.464844 70.425781 259.386719 70.429688 L 233.914062 70.605469 C 233.835938 70.605469 233.769531 70.636719 233.714844 70.691406 C 233.660156 70.746094 233.636719 70.808594 233.636719 70.886719 Z M 169.617188 100.4375 L 198.933594 100.371094 C 199.003906 100.371094 199.0625 100.347656 199.113281 100.296875 C 199.160156 100.25 199.183594 100.1875 199.183594 100.117188 L 199.140625 71.03125 C 199.140625 70.925781 199.105469 70.839844 199.035156 70.761719 C 198.96875 70.6875 198.882812 70.644531 198.78125 70.636719 C 198.664062 70.625 198.5625 70.628906 198.480469 70.648438 C 198.300781 70.6875 198.195312 70.707031 198.164062 70.707031 L 169.976562 70.707031 C 169.640625 70.707031 169.472656 70.878906 169.472656 71.214844 L 169.472656 100.289062 C 169.472656 100.390625 169.519531 100.4375 169.617188 100.4375 Z M 230.554688 70.828125 C 230.554688 70.707031 230.492188 70.644531 230.371094 70.644531 L 202.371094 70.695312 C 202.25 70.695312 202.1875 70.753906 202.1875 70.875 L 202.238281 100.152344 C 202.242188 100.273438 202.300781 100.335938 202.421875 100.335938 L 230.421875 100.285156 C 230.542969 100.285156 230.605469 100.226562 230.605469 100.101562 Z M 166.394531 71.015625 C 166.394531 70.867188 166.320312 70.792969 166.171875 70.792969 L 140.566406 70.835938 C 140.414062 70.835938 140.339844 70.914062 140.339844 71.0625 L 140.390625 100.371094 C 140.390625 100.523438 140.46875 100.597656 140.617188 100.597656 L 166.222656 100.550781 C 166.371094 100.550781 166.449219 100.476562 166.449219 100.328125 Z M 109.53125 100.652344 L 137.167969 100.632812 C 137.289062 100.632812 137.351562 100.574219 137.351562 100.453125 L 137.285156 71.277344 C 137.285156 71.183594 137.253906 71.101562 137.1875 71.035156 C 137.121094 70.96875 137.039062 70.933594 136.941406 70.933594 L 109.535156 71.015625 C 109.464844 71.015625 109.402344 71.042969 109.351562 71.09375 C 109.300781 71.144531 109.277344 71.207031 109.277344 71.277344 L 109.277344 100.398438 C 109.277344 100.570312 109.363281 100.652344 109.53125 100.652344 Z M 48.75 71.160156 C 48.710938 71.214844 48.34375 71.09375 48.191406 71.144531 C 48.125 71.171875 48.089844 71.21875 48.089844 71.289062 L 48.089844 100.746094 C 48.089844 100.859375 48.144531 100.914062 48.257812 100.914062 L 76.171875 100.828125 C 76.261719 100.828125 76.335938 100.796875 76.398438 100.734375 C 76.460938 100.671875 76.492188 100.59375 76.492188 100.503906 L 76.429688 71.605469 C 76.429688 71.449219 76.375 71.316406 76.265625 71.203125 C 76.152344 71.09375 76.019531 71.039062 75.863281 71.039062 L 48.835938 71.148438 C 48.785156 71.148438 48.753906 71.152344 48.75 71.160156 Z M 105.898438 71.039062 L 79.757812 71.039062 C 79.691406 71.039062 79.632812 71.0625 79.582031 71.113281 C 79.535156 71.160156 79.511719 71.21875 79.511719 71.289062 L 79.511719 100.546875 C 79.511719 100.664062 79.570312 100.722656 79.683594 100.722656 L 106.046875 100.722656 C 106.136719 100.722656 106.210938 100.691406 106.269531 100.628906 C 106.332031 100.566406 106.359375 100.492188 106.355469 100.402344 C 106.007812 90.75 106.21875 81.019531 106.203125 71.34375 C 106.203125 71.261719 106.175781 71.1875 106.113281 71.128906 C 106.054688 71.070312 105.980469 71.039062 105.898438 71.039062 Z M 44.835938 100.972656 C 44.902344 100.972656 44.960938 100.949219 45.011719 100.898438 C 45.058594 100.851562 45.082031 100.792969 45.082031 100.722656 L 44.988281 71.464844 C 44.988281 71.394531 44.964844 71.335938 44.914062 71.289062 C 44.867188 71.238281 44.808594 71.214844 44.738281 71.214844 L 15.59375 71.328125 C 15.527344 71.328125 15.46875 71.351562 15.417969 71.398438 C 15.371094 71.449219 15.347656 71.507812 15.347656 71.574219 L 15.347656 100.722656 C 15.347656 100.792969 15.371094 100.851562 15.417969 100.898438 C 15.46875 100.949219 15.527344 100.972656 15.59375 100.972656 Z M 11.988281 71.359375 L -13.515625 71.375 C -13.675781 71.375 -13.757812 71.457031 -13.757812 71.621094 L -13.757812 100.792969 C -13.757812 100.863281 -13.734375 100.925781 -13.683594 100.972656 C -13.632812 101.023438 -13.570312 101.050781 -13.5 101.050781 C -5.3125 101.078125 2.875 101.042969 11.058594 100.945312 C 11.390625 100.941406 11.929688 101.214844 12.28125 100.925781 C 12.367188 100.851562 12.410156 100.761719 12.40625 100.648438 C 12.171875 90.976562 12.289062 81.292969 12.273438 71.648438 C 12.273438 71.570312 12.246094 71.5 12.191406 71.445312 C 12.132812 71.386719 12.066406 71.359375 11.988281 71.359375 Z M -16.859375 71.445312 C -16.859375 71.390625 -16.886719 71.359375 -16.945312 71.363281 L -44.8125 71.457031 C -44.871094 71.460938 -44.898438 71.488281 -44.898438 71.546875 L -44.796875 101.121094 C -44.796875 101.175781 -44.765625 101.207031 -44.710938 101.207031 L -16.84375 101.109375 C -16.785156 101.109375 -16.757812 101.078125 -16.757812 101.023438 Z M 259.789062 103.417969 C 259.789062 103.261719 259.710938 103.1875 259.554688 103.1875 L 233.90625 103.320312 C 233.75 103.320312 233.671875 103.398438 233.675781 103.554688 L 233.820312 131.527344 C 233.820312 131.683594 233.898438 131.757812 234.054688 131.757812 L 259.707031 131.625 C 259.859375 131.621094 259.9375 131.546875 259.9375 131.390625 Z M 230.707031 103.5625 C 230.707031 103.425781 230.640625 103.355469 230.503906 103.355469 L 202.476562 103.453125 C 202.339844 103.457031 202.269531 103.523438 202.273438 103.660156 L 202.371094 131.574219 C 202.371094 131.710938 202.4375 131.78125 202.574219 131.777344 L 230.601562 131.679688 C 230.738281 131.679688 230.804688 131.613281 230.804688 131.476562 Z M 166.542969 103.648438 C 166.542969 103.554688 166.496094 103.507812 166.402344 103.507812 L 140.566406 103.601562 C 140.472656 103.601562 140.425781 103.648438 140.425781 103.738281 L 140.523438 131.898438 C 140.523438 131.992188 140.570312 132.035156 140.664062 132.035156 L 166.5 131.945312 C 166.59375 131.945312 166.640625 131.898438 166.640625 131.808594 Z M 199.316406 103.515625 C 199.316406 103.457031 199.285156 103.425781 199.226562 103.425781 L 169.644531 103.476562 C 169.585938 103.476562 169.554688 103.507812 169.554688 103.566406 L 169.605469 131.757812 C 169.605469 131.820312 169.636719 131.847656 169.695312 131.847656 L 199.277344 131.796875 C 199.335938 131.796875 199.363281 131.765625 199.363281 131.707031 Z M 106.351562 103.839844 C 106.351562 103.769531 106.320312 103.734375 106.25 103.738281 L 79.671875 103.828125 C 79.605469 103.828125 79.570312 103.863281 79.570312 103.933594 L 79.667969 132.066406 C 79.667969 132.132812 79.703125 132.167969 79.769531 132.167969 L 106.347656 132.074219 C 106.417969 132.074219 106.453125 132.039062 106.453125 131.972656 Z M 137.472656 103.894531 C 137.472656 103.757812 137.402344 103.691406 137.269531 103.691406 L 109.566406 103.742188 C 109.433594 103.742188 109.363281 103.808594 109.363281 103.941406 L 109.414062 131.882812 C 109.414062 132.019531 109.480469 132.085938 109.617188 132.085938 L 137.320312 132.035156 C 137.453125 132.035156 137.519531 131.96875 137.519531 131.835938 Z M 76.585938 104.074219 C 76.585938 103.996094 76.558594 103.929688 76.503906 103.875 C 76.449219 103.820312 76.382812 103.792969 76.304688 103.792969 L 48.429688 103.890625 C 48.351562 103.890625 48.285156 103.917969 48.230469 103.972656 C 48.175781 104.027344 48.148438 104.09375 48.152344 104.171875 L 48.246094 132.046875 C 48.246094 132.125 48.277344 132.191406 48.332031 132.246094 C 48.386719 132.300781 48.453125 132.328125 48.53125 132.328125 L 76.40625 132.230469 C 76.480469 132.230469 76.546875 132.203125 76.601562 132.148438 C 76.65625 132.09375 76.683594 132.027344 76.683594 131.949219 Z M 45.195312 104.132812 C 45.195312 104.035156 45.144531 103.988281 45.046875 103.988281 L 15.578125 104.039062 C 15.484375 104.039062 15.433594 104.089844 15.433594 104.1875 L 15.484375 132.273438 C 15.484375 132.371094 15.53125 132.417969 15.628906 132.417969 L 45.097656 132.367188 C 45.195312 132.367188 45.242188 132.316406 45.242188 132.21875 Z M 12.425781 104.3125 C 12.421875 104.246094 12.398438 104.1875 12.351562 104.136719 C 12.300781 104.089844 12.242188 104.066406 12.175781 104.066406 L -13.449219 104.15625 C -13.519531 104.15625 -13.578125 104.179688 -13.625 104.226562 C -13.675781 104.277344 -13.699219 104.335938 -13.699219 104.402344 L -13.601562 132.253906 C -13.601562 132.320312 -13.574219 132.378906 -13.527344 132.425781 C -13.480469 132.476562 -13.421875 132.5 -13.351562 132.5 L 12.273438 132.410156 C 12.34375 132.410156 12.402344 132.386719 12.449219 132.335938 C 12.496094 132.289062 12.519531 132.230469 12.519531 132.160156 Z M -16.707031 104.335938 C -16.707031 104.261719 -16.730469 104.199219 -16.785156 104.148438 C -16.835938 104.097656 -16.898438 104.070312 -16.972656 104.070312 L -44.546875 104.214844 C -44.621094 104.214844 -44.683594 104.242188 -44.734375 104.292969 C -44.785156 104.347656 -44.8125 104.410156 -44.8125 104.480469 L -44.664062 132.382812 C -44.664062 132.457031 -44.640625 132.519531 -44.585938 132.570312 C -44.535156 132.621094 -44.472656 132.644531 -44.398438 132.644531 L -16.824219 132.5 C -16.75 132.5 -16.6875 132.476562 -16.636719 132.421875 C -16.585938 132.371094 -16.558594 132.308594 -16.558594 132.234375 Z M 259.882812 134.796875 C 259.882812 134.683594 259.824219 134.625 259.710938 134.625 L 234.019531 134.714844 C 233.902344 134.714844 233.847656 134.773438 233.847656 134.886719 L 233.9375 161.328125 C 233.9375 161.441406 233.996094 161.5 234.113281 161.5 L 259.804688 161.410156 C 259.917969 161.410156 259.976562 161.351562 259.976562 161.238281 Z M 230.800781 135.054688 C 230.800781 134.894531 230.71875 134.8125 230.554688 134.8125 L 202.695312 134.859375 C 202.53125 134.859375 202.449219 134.941406 202.449219 135.105469 L 202.496094 161.28125 C 202.496094 161.445312 202.578125 161.523438 202.742188 161.523438 L 230.601562 161.476562 C 230.765625 161.476562 230.847656 161.394531 230.847656 161.230469 Z M 166.613281 135.152344 C 166.613281 135 166.539062 134.925781 166.386719 134.925781 L 140.824219 135.015625 C 140.671875 135.015625 140.597656 135.09375 140.597656 135.242188 L 140.691406 161.582031 C 140.691406 161.730469 140.765625 161.804688 140.914062 161.804688 L 166.480469 161.71875 C 166.632812 161.714844 166.707031 161.640625 166.707031 161.492188 Z M 199.378906 135.082031 C 199.378906 134.925781 199.300781 134.847656 199.144531 134.847656 L 169.953125 134.898438 C 169.796875 134.898438 169.71875 134.976562 169.71875 135.132812 L 169.765625 161.386719 C 169.765625 161.542969 169.84375 161.621094 170 161.621094 L 199.191406 161.570312 C 199.347656 161.570312 199.425781 161.492188 199.425781 161.335938 Z M 137.535156 135.359375 C 137.535156 135.199219 137.453125 135.117188 137.289062 135.117188 L 109.757812 135.164062 C 109.597656 135.164062 109.515625 135.246094 109.515625 135.410156 L 109.5625 161.609375 C 109.5625 161.773438 109.644531 161.855469 109.804688 161.855469 L 137.335938 161.808594 C 137.5 161.808594 137.582031 161.726562 137.582031 161.5625 Z M 76.65625 135.449219 C 76.65625 135.289062 76.574219 135.207031 76.414062 135.207031 L 48.550781 135.304688 C 48.390625 135.304688 48.3125 135.386719 48.3125 135.546875 L 48.402344 161.855469 C 48.40625 162.015625 48.484375 162.09375 48.644531 162.09375 L 76.507812 161.996094 C 76.667969 161.996094 76.75 161.914062 76.746094 161.753906 Z M 106.441406 135.367188 C 106.441406 135.242188 106.378906 135.179688 106.253906 135.179688 L 79.933594 135.226562 C 79.808594 135.226562 79.746094 135.289062 79.746094 135.414062 L 79.792969 161.734375 C 79.792969 161.859375 79.855469 161.921875 79.980469 161.921875 L 106.300781 161.878906 C 106.425781 161.878906 106.488281 161.8125 106.488281 161.6875 Z M 45.257812 135.628906 C 45.257812 135.484375 45.1875 135.414062 45.042969 135.414062 L 15.804688 135.464844 C 15.664062 135.464844 15.589844 135.535156 15.589844 135.679688 L 15.636719 161.972656 C 15.636719 162.117188 15.710938 162.1875 15.851562 162.1875 L 45.089844 162.136719 C 45.234375 162.136719 45.304688 162.0625 45.304688 161.921875 Z M 12.515625 135.734375 C 12.515625 135.582031 12.441406 135.507812 12.289062 135.507812 L -13.308594 135.554688 C -13.457031 135.554688 -13.535156 135.628906 -13.535156 135.777344 L -13.488281 162.003906 C -13.488281 162.15625 -13.414062 162.230469 -13.261719 162.230469 L 12.335938 162.1875 C 12.488281 162.183594 12.5625 162.109375 12.5625 161.960938 Z M -16.617188 135.757812 C -16.617188 135.601562 -16.695312 135.523438 -16.855469 135.523438 L -44.378906 135.617188 C -44.539062 135.617188 -44.617188 135.699219 -44.617188 135.855469 L -44.523438 162.144531 C -44.523438 162.304688 -44.445312 162.382812 -44.285156 162.382812 L -16.761719 162.285156 C -16.601562 162.285156 -16.523438 162.207031 -16.523438 162.046875 Z M 259.9375 164.492188 C 259.9375 164.425781 259.90625 164.394531 259.84375 164.394531 L 234.011719 164.484375 C 233.949219 164.484375 233.917969 164.519531 233.917969 164.582031 L 234.015625 192.496094 C 234.015625 192.558594 234.046875 192.59375 234.109375 192.59375 L 259.941406 192.5 C 260.003906 192.5 260.035156 192.46875 260.035156 192.40625 Z M 230.882812 164.820312 C 230.882812 164.75 230.855469 164.6875 230.808594 164.640625 C 230.757812 164.589844 230.699219 164.566406 230.628906 164.566406 L 202.773438 164.613281 C 202.703125 164.613281 202.640625 164.640625 202.59375 164.6875 C 202.542969 164.738281 202.519531 164.796875 202.519531 164.867188 L 202.566406 192.359375 C 202.566406 192.429688 202.589844 192.488281 202.640625 192.539062 C 202.691406 192.589844 202.75 192.613281 202.820312 192.613281 L 230.675781 192.566406 C 230.746094 192.566406 230.804688 192.539062 230.855469 192.492188 C 230.90625 192.441406 230.929688 192.378906 230.929688 192.308594 Z M 166.71875 164.945312 C 166.71875 164.792969 166.640625 164.71875 166.488281 164.71875 L 140.898438 164.765625 C 140.746094 164.765625 140.667969 164.839844 140.667969 164.992188 L 140.71875 192.640625 C 140.71875 192.792969 140.792969 192.871094 140.945312 192.871094 L 166.539062 192.824219 C 166.691406 192.824219 166.765625 192.75 166.765625 192.597656 Z M 199.421875 164.804688 C 199.421875 164.675781 199.359375 164.613281 199.230469 164.613281 L 169.964844 164.664062 C 169.839844 164.664062 169.773438 164.730469 169.773438 164.855469 L 169.824219 192.511719 C 169.824219 192.640625 169.886719 192.703125 170.015625 192.703125 L 199.277344 192.652344 C 199.40625 192.652344 199.46875 192.589844 199.46875 192.460938 Z M 106.523438 165.171875 C 106.523438 165.019531 106.449219 164.941406 106.296875 164.945312 L 80.042969 164.988281 C 79.890625 164.988281 79.8125 165.066406 79.8125 165.21875 L 79.863281 192.796875 C 79.863281 192.945312 79.9375 193.023438 80.089844 193.023438 L 106.34375 192.976562 C 106.496094 192.976562 106.574219 192.902344 106.570312 192.75 Z M 137.613281 165.046875 C 137.613281 164.933594 137.554688 164.875 137.441406 164.875 L 109.75 164.925781 C 109.636719 164.925781 109.578125 164.980469 109.578125 165.097656 L 109.628906 192.773438 C 109.628906 192.886719 109.6875 192.945312 109.800781 192.945312 L 137.488281 192.894531 C 137.605469 192.894531 137.660156 192.839844 137.660156 192.722656 Z M 48.421875 192.898438 C 48.421875 192.980469 48.449219 193.054688 48.511719 193.113281 C 48.570312 193.175781 48.644531 193.203125 48.726562 193.203125 L 76.472656 193.074219 C 76.558594 193.074219 76.632812 193.042969 76.691406 192.984375 C 76.75 192.921875 76.78125 192.851562 76.78125 192.765625 L 76.78125 165.265625 C 76.78125 165.179688 76.75 165.105469 76.691406 165.046875 C 76.632812 164.988281 76.558594 164.957031 76.472656 164.957031 L 48.726562 165.082031 C 48.644531 165.082031 48.570312 165.113281 48.511719 165.171875 C 48.449219 165.230469 48.421875 165.304688 48.421875 165.390625 Z M 45.335938 165.480469 C 45.332031 165.394531 45.304688 165.324219 45.246094 165.265625 C 45.183594 165.207031 45.113281 165.175781 45.027344 165.175781 L 15.949219 165.226562 C 15.867188 165.226562 15.796875 165.257812 15.734375 165.316406 C 15.675781 165.375 15.648438 165.449219 15.648438 165.53125 L 15.695312 192.96875 C 15.695312 193.054688 15.726562 193.125 15.785156 193.183594 C 15.84375 193.242188 15.914062 193.273438 16 193.273438 L 45.078125 193.222656 C 45.164062 193.222656 45.234375 193.191406 45.292969 193.132812 C 45.351562 193.074219 45.382812 193 45.382812 192.917969 Z M 12.59375 165.550781 C 12.59375 165.476562 12.566406 165.410156 12.511719 165.355469 C 12.457031 165.300781 12.390625 165.273438 12.316406 165.273438 L -13.175781 165.320312 C -13.253906 165.320312 -13.320312 165.347656 -13.375 165.402344 C -13.429688 165.457031 -13.457031 165.519531 -13.453125 165.597656 L -13.40625 193.070312 C -13.40625 193.144531 -13.378906 193.210938 -13.324219 193.265625 C -13.269531 193.320312 -13.207031 193.347656 -13.128906 193.347656 L 12.363281 193.300781 C 12.441406 193.300781 12.507812 193.273438 12.5625 193.21875 C 12.613281 193.164062 12.640625 193.101562 12.640625 193.023438 Z M -16.535156 165.542969 C -16.535156 165.472656 -16.558594 165.414062 -16.609375 165.367188 C -16.65625 165.320312 -16.714844 165.296875 -16.785156 165.296875 L -44.320312 165.390625 C -44.390625 165.390625 -44.449219 165.417969 -44.496094 165.464844 C -44.542969 165.511719 -44.570312 165.570312 -44.570312 165.640625 L -44.472656 193.230469 C -44.472656 193.300781 -44.449219 193.359375 -44.398438 193.40625 C -44.351562 193.453125 -44.292969 193.476562 -44.222656 193.476562 L -16.6875 193.382812 C -16.617188 193.382812 -16.558594 193.355469 -16.511719 193.308594 C -16.460938 193.261719 -16.4375 193.203125 -16.4375 193.132812 Z M 260.082031 195.757812 C 260.082031 195.675781 260.054688 195.605469 259.996094 195.546875 C 259.9375 195.492188 259.867188 195.464844 259.789062 195.464844 L 234.246094 195.597656 C 234.167969 195.597656 234.097656 195.625 234.039062 195.683594 C 233.984375 195.742188 233.953125 195.8125 233.957031 195.894531 L 234.089844 221.425781 C 234.089844 221.507812 234.117188 221.578125 234.175781 221.632812 C 234.234375 221.691406 234.304688 221.71875 234.382812 221.71875 L 259.925781 221.585938 C 260.003906 221.585938 260.074219 221.554688 260.132812 221.496094 C 260.1875 221.441406 260.21875 221.371094 260.21875 221.289062 Z M 202.664062 221.429688 C 202.664062 221.519531 202.699219 221.597656 202.761719 221.660156 C 202.890625 221.785156 203.015625 221.8125 203.128906 221.738281 C 203.179688 221.707031 203.238281 221.691406 203.296875 221.691406 L 230.921875 221.691406 C 231.042969 221.691406 231.105469 221.632812 231.105469 221.507812 L 230.984375 195.921875 C 230.984375 195.84375 230.957031 195.773438 230.898438 195.714844 C 230.84375 195.65625 230.773438 195.628906 230.691406 195.628906 L 202.714844 195.75 C 202.597656 195.753906 202.539062 195.8125 202.539062 195.929688 Z M 140.765625 221.808594 C 140.757812 221.855469 140.769531 221.898438 140.800781 221.9375 C 140.832031 221.976562 140.871094 221.996094 140.921875 221.996094 L 166.699219 221.914062 C 166.859375 221.914062 166.9375 221.832031 166.9375 221.671875 L 166.835938 196.089844 C 166.835938 196.003906 166.804688 195.929688 166.746094 195.871094 C 166.683594 195.808594 166.609375 195.777344 166.523438 195.777344 L 140.953125 195.878906 C 140.765625 195.878906 140.671875 195.972656 140.675781 196.160156 C 140.78125 204.523438 140.8125 212.890625 140.769531 221.257812 C 140.835938 221.28125 140.835938 221.464844 140.765625 221.808594 Z M 199.59375 195.871094 C 199.59375 195.757812 199.535156 195.703125 199.421875 195.703125 L 170.007812 195.753906 C 169.894531 195.753906 169.839844 195.8125 169.839844 195.921875 L 169.882812 221.640625 C 169.882812 221.753906 169.941406 221.808594 170.054688 221.808594 L 199.46875 221.757812 C 199.582031 221.757812 199.636719 221.703125 199.636719 221.589844 Z M 106.644531 196.203125 C 106.644531 196.074219 106.578125 196.007812 106.449219 196.011719 L 80.042969 196.101562 C 79.914062 196.101562 79.847656 196.167969 79.847656 196.296875 L 79.9375 221.9375 C 79.9375 222.066406 80.003906 222.132812 80.132812 222.132812 L 106.539062 222.039062 C 106.671875 222.039062 106.734375 221.972656 106.734375 221.84375 Z M 137.757812 196.1875 C 137.757812 196.042969 137.683594 195.96875 137.539062 195.96875 L 109.855469 196.015625 C 109.710938 196.015625 109.636719 196.089844 109.636719 196.234375 L 109.683594 221.828125 C 109.683594 221.972656 109.757812 222.046875 109.902344 222.046875 L 137.585938 222 C 137.730469 221.996094 137.800781 221.925781 137.800781 221.78125 Z M 76.882812 196.3125 C 76.882812 196.242188 76.855469 196.183594 76.808594 196.132812 C 76.757812 196.085938 76.695312 196.058594 76.625 196.058594 L 48.691406 196.15625 C 48.621094 196.15625 48.5625 196.183594 48.511719 196.234375 C 48.464844 196.28125 48.4375 196.34375 48.4375 196.414062 L 48.527344 222.03125 C 48.527344 222.101562 48.554688 222.164062 48.601562 222.210938 C 48.652344 222.261719 48.714844 222.285156 48.785156 222.285156 L 76.71875 222.1875 C 76.789062 222.1875 76.847656 222.164062 76.898438 222.113281 C 76.949219 222.0625 76.972656 222.003906 76.972656 221.933594 Z M 45.476562 196.542969 C 45.476562 196.464844 45.449219 196.402344 45.394531 196.347656 C 45.34375 196.292969 45.277344 196.265625 45.199219 196.265625 L 15.996094 196.316406 C 15.917969 196.316406 15.851562 196.34375 15.800781 196.398438 C 15.746094 196.453125 15.71875 196.519531 15.71875 196.59375 L 15.761719 222.101562 C 15.761719 222.179688 15.789062 222.242188 15.84375 222.296875 C 15.898438 222.351562 15.964844 222.378906 16.039062 222.378906 L 45.246094 222.328125 C 45.320312 222.328125 45.386719 222.300781 45.441406 222.246094 C 45.496094 222.191406 45.523438 222.125 45.523438 222.050781 Z M 12.714844 196.617188 C 12.714844 196.542969 12.6875 196.476562 12.632812 196.421875 C 12.578125 196.367188 12.511719 196.34375 12.4375 196.34375 L -13.136719 196.429688 C -13.210938 196.433594 -13.277344 196.460938 -13.332031 196.511719 C -13.386719 196.566406 -13.414062 196.632812 -13.414062 196.710938 L -13.324219 222.183594 C -13.324219 222.261719 -13.296875 222.324219 -13.242188 222.378906 C -13.1875 222.433594 -13.121094 222.460938 -13.042969 222.460938 L 12.527344 222.371094 C 12.605469 222.371094 12.667969 222.34375 12.722656 222.289062 C 12.777344 222.234375 12.804688 222.167969 12.804688 222.09375 Z M -16.410156 196.609375 C -16.410156 196.539062 -16.433594 196.480469 -16.484375 196.429688 C -16.535156 196.382812 -16.59375 196.355469 -16.664062 196.359375 L -44.269531 196.503906 C -44.339844 196.503906 -44.398438 196.527344 -44.449219 196.578125 C -44.496094 196.628906 -44.523438 196.6875 -44.519531 196.757812 L -44.386719 222.355469 C -44.386719 222.425781 -44.363281 222.488281 -44.3125 222.535156 C -44.261719 222.585938 -44.203125 222.609375 -44.132812 222.609375 L -16.527344 222.464844 C -16.457031 222.464844 -16.398438 222.441406 -16.347656 222.390625 C -16.300781 222.339844 -16.273438 222.28125 -16.273438 222.210938 Z M 260.210938 224.796875 C 260.210938 224.65625 260.140625 224.585938 260 224.585938 L 234.355469 224.675781 C 234.210938 224.675781 234.140625 224.746094 234.144531 224.890625 L 234.246094 254.21875 C 234.246094 254.359375 234.316406 254.429688 234.457031 254.429688 L 260.101562 254.339844 C 260.242188 254.339844 260.3125 254.269531 260.3125 254.128906 Z M 170.332031 254.578125 L 199.460938 254.492188 C 199.535156 254.492188 199.601562 254.464844 199.652344 254.410156 C 199.707031 254.355469 199.734375 254.289062 199.734375 254.214844 L 199.730469 225.414062 C 199.730469 225.253906 199.59375 225.042969 199.320312 224.777344 C 199.136719 224.597656 172.742188 224.832031 170.066406 224.832031 C 170.007812 224.832031 169.980469 224.863281 169.984375 224.917969 L 170.078125 254.324219 C 170.078125 254.394531 170.101562 254.453125 170.152344 254.503906 C 170.199219 254.550781 170.261719 254.578125 170.332031 254.578125 Z M 204.640625 254.453125 C 213.414062 254.433594 222.195312 254.429688 230.984375 254.433594 C 231.097656 254.433594 231.152344 254.378906 231.152344 254.265625 L 231.152344 225.242188 C 231.152344 225.105469 231.105469 224.988281 231.007812 224.890625 C 230.910156 224.792969 230.789062 224.742188 230.652344 224.746094 L 202.917969 224.839844 C 202.789062 224.839844 202.726562 224.90625 202.726562 225.035156 L 202.828125 254.285156 C 202.828125 254.390625 202.878906 254.453125 202.980469 254.472656 C 203.5 254.578125 204.242188 254.453125 204.640625 254.453125 Z M 166.964844 225.140625 C 166.964844 224.988281 166.886719 224.910156 166.734375 224.910156 L 141.132812 224.957031 C 140.980469 224.957031 140.902344 225.03125 140.902344 225.1875 L 140.953125 254.492188 C 140.953125 254.644531 141.03125 254.722656 141.1875 254.722656 L 166.785156 254.675781 C 166.941406 254.675781 167.015625 254.597656 167.015625 254.445312 Z M 137.882812 225.3125 C 137.882812 225.15625 137.804688 225.074219 137.644531 225.074219 L 110.015625 225.105469 C 109.859375 225.105469 109.78125 225.183594 109.78125 225.34375 L 109.902344 254.53125 C 109.902344 254.691406 109.980469 254.769531 110.140625 254.769531 L 137.652344 254.765625 C 137.808594 254.765625 137.890625 254.6875 137.890625 254.527344 Z M 77.03125 225.398438 C 77.03125 225.332031 77.003906 225.273438 76.957031 225.222656 C 76.910156 225.175781 76.851562 225.152344 76.78125 225.152344 L 48.839844 225.273438 C 48.773438 225.273438 48.714844 225.296875 48.664062 225.347656 C 48.617188 225.394531 48.59375 225.453125 48.59375 225.523438 L 48.722656 254.796875 C 48.722656 254.863281 48.746094 254.921875 48.792969 254.972656 C 48.84375 255.019531 48.902344 255.042969 48.96875 255.042969 L 76.78125 254.917969 C 76.851562 254.917969 76.910156 254.894531 76.957031 254.84375 C 77.003906 254.796875 77.03125 254.738281 77.03125 254.667969 Z M 106.4375 254.832031 C 106.503906 254.859375 106.570312 254.863281 106.628906 254.847656 C 106.742188 254.816406 106.796875 254.746094 106.796875 254.632812 L 106.796875 225.265625 C 106.796875 225.199219 106.761719 225.164062 106.695312 225.164062 L 80.179688 225.164062 C 80.074219 225.164062 80.023438 225.214844 80.027344 225.320312 L 80.117188 254.5 C 80.117188 254.601562 80.152344 254.691406 80.222656 254.761719 C 80.296875 254.832031 80.382812 254.867188 80.484375 254.867188 L 106.257812 254.796875 C 106.320312 254.796875 106.378906 254.808594 106.4375 254.832031 Z M 45.609375 225.496094 C 45.609375 225.394531 45.558594 225.34375 45.457031 225.34375 L 16 225.441406 C 15.898438 225.441406 15.847656 225.492188 15.847656 225.59375 L 15.984375 254.945312 C 15.984375 255.046875 16.035156 255.097656 16.136719 255.097656 L 45.460938 255.097656 C 45.5625 255.097656 45.613281 255.046875 45.613281 254.945312 Z M 12.839844 225.726562 C 12.839844 225.65625 12.816406 225.59375 12.765625 225.542969 C 12.714844 225.496094 12.652344 225.46875 12.582031 225.46875 L -12.964844 225.515625 C -13.035156 225.515625 -13.097656 225.539062 -13.144531 225.589844 C -13.195312 225.640625 -13.222656 225.703125 -13.222656 225.773438 L -13.171875 254.902344 C -13.171875 254.976562 -13.144531 255.035156 -13.09375 255.085938 C -13.042969 255.136719 -12.984375 255.160156 -12.914062 255.160156 L 12.632812 255.117188 C 12.707031 255.117188 12.765625 255.089844 12.816406 255.042969 C 12.867188 254.992188 12.890625 254.929688 12.890625 254.859375 Z M -16.238281 225.742188 C -16.238281 225.667969 -16.265625 225.605469 -16.320312 225.550781 C -16.371094 225.5 -16.433594 225.472656 -16.511719 225.472656 L -44.066406 225.59375 C -44.140625 225.59375 -44.207031 225.621094 -44.257812 225.671875 C -44.3125 225.726562 -44.339844 225.789062 -44.339844 225.867188 L -44.230469 255.117188 C -44.230469 255.191406 -44.203125 255.253906 -44.148438 255.304688 C -44.097656 255.359375 -44.03125 255.382812 -43.957031 255.382812 L -16.507812 255.164062 C -16.433594 255.160156 -16.371094 255.132812 -16.316406 255.082031 C -16.265625 255.027344 -16.238281 254.964844 -16.238281 254.890625 Z M 260.234375 257.417969 C 260.234375 257.363281 260.203125 257.332031 260.148438 257.332031 L 234.328125 257.421875 C 234.273438 257.421875 234.242188 257.453125 234.242188 257.511719 L 234.34375 285.769531 C 234.34375 285.824219 234.371094 285.855469 234.429688 285.855469 L 260.246094 285.761719 C 260.304688 285.761719 260.332031 285.734375 260.332031 285.675781 Z M 231.148438 257.691406 C 231.148438 257.566406 231.085938 257.503906 230.960938 257.503906 L 203.027344 257.550781 C 202.902344 257.550781 202.839844 257.613281 202.839844 257.742188 L 202.886719 285.699219 C 202.886719 285.828125 202.949219 285.890625 203.074219 285.890625 L 231.011719 285.839844 C 231.136719 285.839844 231.199219 285.777344 231.199219 285.652344 Z M 170.328125 285.992188 L 199.464844 285.914062 C 199.570312 285.914062 199.65625 285.878906 199.726562 285.804688 C 199.800781 285.734375 199.835938 285.644531 199.835938 285.542969 L 199.769531 257.757812 C 199.769531 257.636719 199.707031 257.578125 199.585938 257.578125 L 170.394531 257.578125 C 170.285156 257.578125 170.210938 257.628906 170.175781 257.734375 C 169.933594 258.480469 170.140625 259.417969 170.140625 260 C 170.128906 268.621094 170.128906 277.222656 170.136719 285.800781 C 170.136719 285.925781 170.199219 285.992188 170.328125 285.992188 Z M 167.027344 257.945312 C 167.027344 257.863281 167 257.796875 166.945312 257.742188 C 166.886719 257.683594 166.820312 257.65625 166.742188 257.65625 L 141.289062 257.703125 C 141.207031 257.703125 141.140625 257.730469 141.085938 257.785156 C 141.027344 257.84375 141 257.910156 141 257.988281 L 141.046875 285.851562 C 141.050781 285.929688 141.078125 286 141.132812 286.054688 C 141.191406 286.109375 141.257812 286.140625 141.335938 286.136719 L 166.789062 286.09375 C 166.871094 286.09375 166.9375 286.066406 166.992188 286.007812 C 167.050781 285.953125 167.078125 285.886719 167.078125 285.804688 Z M 106.796875 258.214844 C 106.796875 258.125 106.765625 258.046875 106.703125 257.980469 C 106.636719 257.917969 106.558594 257.886719 106.46875 257.886719 L 80.472656 257.929688 C 80.378906 257.929688 80.300781 257.960938 80.238281 258.027344 C 80.171875 258.09375 80.140625 258.171875 80.140625 258.261719 L 80.1875 285.957031 C 80.1875 286.050781 80.222656 286.125 80.285156 286.191406 C 80.351562 286.253906 80.429688 286.289062 80.519531 286.289062 L 106.515625 286.242188 C 106.609375 286.242188 106.6875 286.210938 106.75 286.144531 C 106.816406 286.082031 106.847656 286.003906 106.847656 285.910156 Z M 137.925781 258.054688 C 137.925781 257.890625 137.84375 257.808594 137.679688 257.8125 L 110.15625 257.859375 C 109.992188 257.859375 109.910156 257.941406 109.910156 258.105469 L 109.960938 285.964844 C 109.960938 286.128906 110.042969 286.210938 110.203125 286.210938 L 137.726562 286.160156 C 137.890625 286.160156 137.972656 286.078125 137.972656 285.917969 Z M 77.042969 258.164062 C 77.042969 258 76.960938 257.917969 76.796875 257.917969 L 48.941406 258.015625 C 48.78125 258.015625 48.699219 258.097656 48.699219 258.261719 L 48.796875 286.207031 C 48.796875 286.371094 48.878906 286.453125 49.042969 286.453125 L 76.898438 286.355469 C 77.058594 286.355469 77.140625 286.273438 77.140625 286.109375 Z M 16.105469 258.183594 C 16.035156 258.183594 16 258.21875 16 258.289062 L 16.011719 286.414062 C 16.011719 286.480469 16.046875 286.515625 16.113281 286.515625 L 45.605469 286.515625 C 45.675781 286.515625 45.707031 286.480469 45.707031 286.414062 L 45.585938 258.191406 C 45.585938 258.125 45.550781 258.089844 45.484375 258.089844 Z M 12.875 258.316406 C 12.875 258.246094 12.839844 258.210938 12.769531 258.210938 L -13.015625 258.257812 C -13.085938 258.257812 -13.121094 258.292969 -13.121094 258.363281 L -13.074219 286.488281 C -13.070312 286.558594 -13.035156 286.59375 -12.964844 286.59375 L 12.816406 286.550781 C 12.886719 286.550781 12.925781 286.515625 12.921875 286.445312 Z M -16.257812 258.492188 C -16.257812 258.417969 -16.285156 258.355469 -16.335938 258.304688 C -16.386719 258.253906 -16.449219 258.226562 -16.523438 258.226562 L -43.976562 258.324219 C -44.046875 258.324219 -44.109375 258.347656 -44.160156 258.402344 C -44.214844 258.453125 -44.238281 258.515625 -44.238281 258.589844 L -44.140625 286.476562 C -44.140625 286.550781 -44.113281 286.609375 -44.0625 286.664062 C -44.011719 286.714844 -43.949219 286.738281 -43.875 286.738281 L -16.425781 286.644531 C -16.351562 286.644531 -16.289062 286.617188 -16.238281 286.566406 C -16.1875 286.515625 -16.160156 286.453125 -16.160156 286.378906 Z M 260.3125 314.855469 C 260.464844 314.851562 260.539062 314.773438 260.539062 314.621094 L 260.324219 288.941406 C 260.324219 288.785156 260.246094 288.707031 260.089844 288.710938 L 234.503906 288.882812 C 234.351562 288.882812 234.273438 288.960938 234.273438 289.117188 L 234.398438 314.746094 C 234.398438 314.898438 234.476562 314.976562 234.628906 314.976562 Z M 199.871094 289.207031 C 199.871094 289.132812 199.84375 289.074219 199.792969 289.023438 C 199.742188 288.972656 199.679688 288.945312 199.609375 288.945312 L 170.390625 289.046875 C 170.320312 289.046875 170.257812 289.074219 170.207031 289.125 C 170.15625 289.175781 170.132812 289.238281 170.132812 289.308594 L 170.21875 314.84375 C 170.222656 314.914062 170.246094 314.976562 170.296875 315.027344 C 170.347656 315.078125 170.410156 315.105469 170.484375 315.105469 L 199.699219 315 C 199.773438 315 199.832031 314.976562 199.882812 314.925781 C 199.933594 314.875 199.960938 314.8125 199.960938 314.738281 Z M 231.277344 289.0625 C 231.277344 288.949219 231.222656 288.894531 231.109375 288.894531 L 203.042969 288.992188 C 202.929688 288.992188 202.875 289.050781 202.875 289.164062 L 202.964844 314.847656 C 202.964844 314.960938 203.019531 315.015625 203.132812 315.015625 L 231.199219 314.917969 C 231.3125 314.917969 231.367188 314.859375 231.367188 314.75 Z M 167.101562 289.324219 C 167.101562 289.246094 167.074219 289.175781 167.015625 289.117188 C 166.957031 289.0625 166.886719 289.03125 166.804688 289.03125 L 141.300781 289.167969 C 141.21875 289.167969 141.148438 289.195312 141.09375 289.253906 C 141.035156 289.3125 141.007812 289.382812 141.007812 289.460938 L 141.140625 314.996094 C 141.140625 315.078125 141.171875 315.144531 141.226562 315.203125 C 141.285156 315.261719 141.355469 315.289062 141.4375 315.289062 L 166.941406 315.15625 C 167.023438 315.152344 167.09375 315.125 167.152344 315.066406 C 167.207031 315.007812 167.238281 314.941406 167.234375 314.859375 Z M 110.039062 315.007812 C 110.039062 315.085938 110.070312 315.152344 110.125 315.210938 C 110.179688 315.265625 110.25 315.292969 110.328125 315.292969 L 137.886719 315.289062 C 137.964844 315.289062 138.035156 315.261719 138.089844 315.207031 C 138.148438 315.148438 138.175781 315.078125 138.171875 315 L 137.957031 289.511719 C 137.957031 289.433594 137.929688 289.367188 137.871094 289.3125 C 137.816406 289.257812 137.75 289.230469 137.671875 289.230469 L 110.203125 289.28125 C 110.125 289.28125 110.054688 289.308594 110 289.367188 C 109.941406 289.421875 109.914062 289.488281 109.914062 289.570312 Z M 77.144531 289.574219 C 77.144531 289.5 77.117188 289.4375 77.0625 289.382812 C 77.011719 289.332031 76.945312 289.304688 76.871094 289.304688 L 48.996094 289.449219 C 48.921875 289.449219 48.859375 289.476562 48.804688 289.53125 C 48.753906 289.585938 48.726562 289.648438 48.726562 289.722656 L 48.863281 315.308594 C 48.863281 315.382812 48.890625 315.449219 48.941406 315.5 C 48.996094 315.554688 49.058594 315.578125 49.132812 315.578125 L 77.007812 315.433594 C 77.082031 315.433594 77.148438 315.40625 77.199219 315.351562 C 77.253906 315.300781 77.277344 315.234375 77.277344 315.160156 Z M 106.921875 289.582031 C 106.921875 289.5 106.894531 289.429688 106.835938 289.371094 C 106.777344 289.3125 106.703125 289.28125 106.621094 289.28125 L 80.472656 289.375 C 80.390625 289.375 80.320312 289.402344 80.261719 289.460938 C 80.203125 289.519531 80.171875 289.59375 80.171875 289.675781 L 80.261719 315.101562 C 80.261719 315.1875 80.292969 315.257812 80.351562 315.316406 C 80.410156 315.375 80.480469 315.402344 80.5625 315.402344 L 106.710938 315.3125 C 106.796875 315.3125 106.867188 315.28125 106.925781 315.222656 C 106.984375 315.164062 107.011719 315.09375 107.011719 315.007812 Z M 45.753906 289.820312 C 45.753906 289.734375 45.722656 289.660156 45.660156 289.597656 C 45.601562 289.539062 45.527344 289.507812 45.441406 289.507812 L 16.316406 289.609375 C 16.230469 289.609375 16.15625 289.640625 16.097656 289.703125 C 16.035156 289.761719 16.007812 289.835938 16.007812 289.921875 L 16.09375 315.363281 C 16.097656 315.449219 16.125 315.523438 16.1875 315.582031 C 16.25 315.644531 16.320312 315.671875 16.40625 315.671875 L 45.53125 315.570312 C 45.617188 315.570312 45.691406 315.539062 45.75 315.480469 C 45.8125 315.417969 45.84375 315.34375 45.84375 315.257812 Z M -12.886719 315.726562 L 12.976562 315.605469 C 13.09375 315.605469 13.152344 315.546875 13.152344 315.425781 L 12.941406 289.917969 C 12.941406 289.769531 12.863281 289.671875 12.71875 289.632812 C 12.21875 289.496094 11.421875 289.664062 11.042969 289.664062 C 3.0625 289.65625 -4.910156 289.65625 -12.878906 289.660156 C -13.039062 289.660156 -13.117188 289.742188 -13.117188 289.898438 L -12.996094 315.621094 C -12.996094 315.691406 -12.960938 315.726562 -12.886719 315.726562 Z M -16.148438 289.933594 C -16.148438 289.84375 -16.183594 289.765625 -16.25 289.699219 C -16.316406 289.632812 -16.394531 289.601562 -16.484375 289.601562 L -43.898438 289.792969 C -43.988281 289.792969 -44.066406 289.828125 -44.132812 289.894531 C -44.195312 289.960938 -44.230469 290.039062 -44.230469 290.128906 L -44.050781 315.558594 C -44.050781 315.648438 -44.015625 315.726562 -43.953125 315.792969 C -43.886719 315.859375 -43.808594 315.890625 -43.714844 315.890625 L -16.304688 315.699219 C -16.210938 315.695312 -16.132812 315.664062 -16.066406 315.597656 C -16.003906 315.53125 -15.972656 315.453125 -15.972656 315.359375 Z M -16.148438 289.933594 " fill-opacity="1" fill-rule="nonzero"/></g></svg>